<?xml version="1.0" standalone="no"?>
<!DOCTYPE svg PUBLIC "-//W3C//DTD SVG 20010904//EN"
 "http://www.w3.org/TR/2001/REC-SVG-20010904/DTD/svg10.dtd">
<svg version="1.0" xmlns="http://www.w3.org/2000/svg"
 width="1157.000000pt" height="1280.000000pt" viewBox="0 0 1157.000000 1280.000000"
 preserveAspectRatio="xMidYMid meet">
<g transform="translate(0.000000,1280.000000) scale(0.100000,-0.100000)"
fill="#ffffff" stroke="none">
<path d="M6860 12784 c-200 -16 -386 -38 -540 -65 -1242 -217 -2371 -940
-3218 -2060 -563 -746 -979 -1652 -1198 -2610 -20 -90 -41 -170 -47 -176 -7
-10 -169 -13 -725 -15 l-717 -3 -172 -395 c-94 -217 -188 -430 -207 -472 -20
-42 -36 -82 -36 -87 0 -8 261 -11 854 -11 691 0 856 -2 864 -13 8 -9 8 -80 1
-248 -10 -223 -6 -523 10 -729 5 -57 4 -100 -2 -107 -7 -10 -151 -13 -658 -13
-607 0 -649 -1 -657 -17 -11 -21 -372 -970 -372 -978 0 -3 413 -5 919 -5 723
0 921 -3 928 -13 6 -6 16 -37 23 -67 51 -224 187 -645 297 -920 231 -579 569
-1160 951 -1635 301 -375 708 -770 1080 -1049 624 -469 1348 -805 2072 -962
287 -63 506 -93 879 -120 223 -17 246 -17 465 0 477 36 783 89 1194 207 772
221 1549 624 2280 1182 l102 78 -1 497 c-1 273 -5 609 -8 746 l-6 249 -60 -84
c-458 -637 -1052 -1124 -1755 -1442 -461 -207 -936 -331 -1500 -389 -167 -17
-737 -17 -895 0 -723 79 -1324 285 -1933 661 -647 400 -1237 1018 -1642 1721
-96 167 -244 470 -320 655 -74 178 -207 574 -216 639 l-7 46 3236 0 c3072 0
3235 1 3242 18 14 35 345 974 345 978 0 2 -1576 5 -3502 6 l-3502 3 -7 35
c-19 92 -29 503 -19 770 9 238 13 277 27 288 13 9 772 12 3713 12 l3696 0 187
478 c103 262 187 480 187 484 0 5 -1718 9 -3817 10 l-3818 3 3 38 c4 51 88
345 152 531 217 636 554 1239 959 1721 128 151 371 397 521 527 591 511 1314
852 2065 977 501 83 989 81 1533 -5 1176 -186 2223 -784 2941 -1679 53 -66
106 -133 118 -150 14 -19 25 -26 31 -20 5 6 91 242 192 525 101 283 188 523
194 532 5 9 8 19 6 21 -3 2 -68 55 -145 118 -1269 1043 -2630 1665 -3875 1769
-74 6 -174 15 -221 20 -111 13 -264 11 -469 -6z"/>
</g>
</svg>
